Patient4_TMGait_0pt4_03_left_35_EMG.mot
version=1
nRows=36
nColumns=33
inDegrees=no
endheader
time	1LAddLong	2LGlutMax	3LGlutMed	4LIliopsoas	5LSemiMemb	6LBicFemLong	7LRecFem	8LVastMed	9LVastLat	10LGasMed	11LTibAnt	12lTibPost	13LPeroneusLong	14LSol	15LExtDigLong	16LFlexDigLong	17RAddLong	18RGlutMax	19RGlutMed	20RIliopsoas	21RSemiMemb	22RBicFemLong	23RRecFem	24RVastMed	25RVastLat	26RGasMed	27RTibAnt	28RTibPost	29RPeroneusLong	30RSol	31RExtDigLong	32RFlexDigLong
47.255	0.000763	0.006561	-0.18326	0.00885	-0.021667	-0.027466	0.015259	0.008392	-0.02533	-0.079346	-0.002594	-0.036774	0.10223	-0.15915	0.044708	0.023804	0.060272	0.21393	0.44098	-0.14694	0.014191	-0.051575	-0.22537	-0.10742	0.21347	-0.002136	-0.005951	-0.005951	-0.056458	0.067596	-0.001526	-0.008698
47.256	-0.00824	0.014801	-0.1767	-0.000458	-0.023804	-0.010223	0.0177	0.005951	-0.02533	0.030823	0.00412	-0.022736	0.047302	-0.24384	0.050354	-0.036316	0.10101	0.25055	0.20508	0.065765	0.04303	-0.043335	-0.044098	-0.26459	0.16174	-0.001068	0.011292	-0.003967	-0.11017	0.019073	-0.001373	-0.007172
47.257	-0.007629	0.035858	-0.17624	-0.006866	-0.023193	0.018921	0.00885	0.011292	-0.030823	0.028381	-0.003204	-0.016937	0.011292	-0.3865	0.037994	-0.053253	0.11673	0.21118	0.1355	0.20065	0.32166	-0.034637	0.092316	-0.31036	0.087585	0.001373	0.00351	-0.005951	-0.065308	-0.009766	0	-0.015106
47.258	-0.005951	0.089874	-0.14099	-0.013275	-0.033112	0.005646	0.004578	-0.005493	-0.02121	0.1294	-0.009918	-0.002289	0.04425	-0.28534	0.038605	-0.052948	0.11581	0.30731	0.233	0.25513	0.17456	-0.027008	0.017853	-0.28305	0.084381	-0.003662	0.01709	-0.00946	-0.041199	-0.023804	-0.002136	-0.013885
47.259	0.002899	0.084534	-0.095062	0.001678	0.001678	0.005493	-0.011597	0.003204	-0.027771	0.48859	0.001373	-0.007477	0.06485	-0.14267	0.032043	-0.048065	0.087433	0.39307	0.67261	0.27573	-0.024414	-0.002136	-0.11292	-0.25314	0.16388	-0.001526	0.007782	-0.002747	0.039215	-0.042114	-0.001678	-0.014648
47.26	0.007172	0.11597	-0.10193	0.002747	0.009155	-0.006104	-0.033722	-0.002594	-0.023804	0.7251	0.009766	-0.006256	0.011444	-0.13336	0.018768	-0.031433	-0.001678	0.28473	0.52078	0.12817	-0.013733	0.019836	-0.27969	-0.14404	0.2034	-0.00351	0.001068	-0.00946	0.041962	-0.026398	-0.000763	-0.005798
47.261	0.003662	0.079498	-0.10651	0.013123	-0.027008	-0.070496	-0.02594	0.004425	-0.029144	0.23377	-0.007324	-0.008545	0.028381	-0.1828	0.016632	-0.033875	-0.060272	0.25894	0.51117	-0.079956	0.19043	0.013123	-0.31586	-0.14832	0.21927	-0.003662	0.025177	-0.004883	0.001678	-0.008392	0.00061	-0.011444
47.262	0.007782	0.046082	-0.097656	0.004272	-0.026245	-0.048218	-0.024872	-0.001831	-0.034027	-0.21698	-0.014343	-0.00946	0.008545	-0.1265	0.017853	-0.01236	-0.070801	0.33829	0.39841	-0.21118	0.49805	0.014801	-0.25559	-0.1384	0.17288	-0.003662	0.011749	-0.003204	0.032959	-0.06073	-0.001678	-0.006561
47.263	0.003204	0.048828	-0.090027	-0.010223	-0.02594	-0.0737	-0.075989	0.001221	-0.019531	-0.32105	0.008087	-0.012207	-0.020599	-0.030212	0.016632	-0.026093	-0.042419	0.30563	0.36987	-0.16586	0.59082	-0.046997	-0.27344	-0.084991	0.1059	-0.003815	0.00351	-0.004425	0.014648	-0.066223	0.000305	-0.008698
47.264	0.001984	0.063324	-0.08606	-0.005035	-0.033417	-0.072784	-0.055695	-0.003052	-0.024414	-0.10971	0.010834	-0.001221	0.021057	-0.046997	0.005951	-0.014191	-0.04776	0.25009	0.25146	0.074615	0.3743	-0.076294	-0.30182	-0.076599	0.15015	-0.010071	0.014191	-0.007629	0.01236	-0.029602	-0.000763	0.000458
47.265	-0.001526	0.054474	-0.085297	-0.016479	-0.039368	-0.068665	-0.041046	0.011139	-0.051422	-0.16174	-0.003967	-0.006866	0.030823	-0.11902	0.000153	-0.019073	-0.018311	0.23224	0.10605	0.18463	0.27222	-0.10788	-0.23254	-0.066986	0.14999	-0.014343	0.007019	-0.006409	-0.017242	0.009308	0.004272	-0.007172
47.266	-0.003204	0.075073	-0.065613	-0.016785	0.006866	-0.009003	-0.072174	0.005798	-0.036011	-0.14572	0.017853	-0.006561	0.01236	0.054321	0.000916	-0.016632	-0.007019	0.10239	-0.053406	0.011749	0.23392	-0.099335	-0.15839	0.030823	0.11475	-0.003967	0.003052	-0.000153	-0.006104	0.048828	-0.000763	-0.010681
47.267	-0.000458	0.083771	-0.0737	0.001221	0.039825	0.045166	-0.083923	0.013275	-0.028534	-0.17777	-0.003815	0.003357	-0.010223	0.11368	-0.00412	-0.021057	0.017548	-0.069122	-0.041656	-0.040741	0.20599	-0.079651	-0.11887	0.054474	0.00824	-0.00412	0.002747	-0.003815	-0.009155	0.004425	-0.001221	-0.000916
47.268	-0.002594	0.1091	-0.056152	-0.010376	0.060272	0.087433	-0.093384	0.00946	-0.031433	-0.059814	0.010681	-0.010986	-0.026093	0.003204	-0.010834	-0.002136	-0.014343	-0.14297	0.036621	0.016327	0.16068	-0.092773	-0.17807	0.11459	0.054932	-0.007324	0.000763	-0.00351	-0.010986	-0.019531	0.002594	0.000153
47.269	-0.003357	0.11536	-0.055237	-0.001678	0.024414	0.083313	-0.11322	0.007172	-0.028992	-0.036926	0.001526	0.018921	-0.02182	-0.039673	-0.005188	0.006561	0.028076	-0.21927	0.08606	0.058746	0.080719	-0.19959	-0.098114	0.032196	0.11108	-0.003357	0.005341	-0.010834	-0.036469	-0.027771	0.001373	-0.00473
47.27	-0.000458	0.093231	-0.046082	-0.001678	-0.005646	0.041962	-0.1355	0.011902	-0.026093	0.075836	0.020294	0.003967	-0.043793	-0.032959	0.005188	0.006104	0.033722	-0.31677	0.20004	0.044403	0.13977	-0.26855	-0.087738	-0.034332	0.15121	-0.007324	-0.006866	-0.001831	-0.020599	-0.019836	0.000305	-0.006714
47.271	-0.000916	0.12405	-0.044708	0.014648	-0.016785	0.024109	-0.14282	0.007629	-0.023804	0.19058	-0.001831	-0.005646	-0.027161	0.068359	0.020599	0.010986	0.040894	-0.28	0.19562	-0.079651	0.17197	-0.31418	-0.060883	-0.015717	0.21133	-0.004425	-0.006866	-0.001831	-0.042267	-0.015564	0.001221	-0.013733
47.272	-0.002289	0.13107	-0.04303	0.010376	-0.007477	0.024719	-0.13397	0.009308	-0.016174	-0.32013	0.006561	0.003967	-0.015259	0.1384	0.022736	0.03006	0.039825	-0.27344	0.31342	-0.099335	0.14832	-0.27542	-0.001831	-0.027313	0.19424	-0.001373	0.001373	-0.003967	-0.05188	-0.005035	0.003815	-0.010681
47.273	-0.010681	0.097504	-0.029144	0.029449	-0.029297	0.011444	-0.12573	0.007477	-0.020294	-0.55222	0.000458	0.009003	0.027161	0.14236	0.012665	-0.54504	0.055847	-0.19211	0.16037	-0.063477	0.20859	-0.20355	0.021515	-0.067596	0.20645	0.013885	-0.006104	-0.00824	-0.005035	-0.028687	-0.004883	-0.011139
47.274	-0.009613	0.13473	-0.019531	0.004578	0.015259	-0.018463	-0.13519	0.003967	-0.012817	-0.29297	-0.007477	0.006409	0.098114	0.16663	0.02533	-0.53619	0.043945	-0.024109	-0.014038	-0.033875	0.26398	-0.15259	-0.026398	-0.1181	0.17548	-0.009766	0.003815	-0.003815	-0.007172	-0.028076	0.00351	-0.013733
47.275	-0.00473	0.16357	-0.017853	0.001831	0.017853	-0.006104	-0.14099	0.007477	-0.003357	-0.18601	0.014191	-0.023651	0.04776	0.18784	0.05722	0.81329	0.041046	0.035248	-0.071259	0.001678	0.17227	-0.068665	-0.020447	-0.029449	0.005035	-0.007935	-0.000458	-0.009003	-0.035553	-0.033264	-0.000458	-0.012665
47.276	-0.005798	0.16037	-0.014648	-0.003662	-0.014496	0.009918	-0.17136	0.003204	0.002289	0.072784	0.001221	-0.011902	0.003204	0.15884	0.037537	0.12161	0.084839	0.005798	-0.02182	-0.00946	0.13489	-0.072021	-0.021515	-0.1062	-0.24002	-0.00885	0.026703	-0.007172	-0.067902	-0.036926	-0.002136	-0.006866
47.277	0.00351	0.16235	0.007782	-0.005035	-0.011902	0.038757	-0.16983	0.00351	0.002899	0.29892	-0.005798	-0.010986	-0.004578	0.31021	-0.004883	0.011292	0.10223	0.05661	0.053406	-0.066376	0.093231	-0.022125	0.00473	-0.10269	-0.37888	-0.003967	0.028381	-0.010223	-0.08667	-0.033722	-0.000916	-0.011444
47.278	0.001984	0.20844	0.016327	-0.005188	-0.023499	0.027924	-0.17029	0.010376	0.005646	0.61188	0.016479	0.00351	0.036926	-0.18524	-0.005188	0.18036	0.042725	0.088654	0.20172	-0.19134	0.10071	0.036011	-0.012817	0.056305	-0.29541	0.001984	-0.009613	-0.011292	-0.02594	-0.016479	0.00473	-0.011444
47.279	-0.009155	0.21423	0.024719	0.00412	-0.005341	0.030975	-0.16937	0.007324	-0.005493	0.61996	0.028229	0.008392	0.063171	-0.3949	-0.008545	0.32684	0.014191	0.103	0.26413	-0.20279	0.075989	0.053406	-0.09964	0.16327	-0.13718	-0.003052	-0.012817	-0.005951	-0.011444	-0.028076	0	-0.009918
47.28	-0.003662	0.23865	0.012207	-0.008698	-0.021362	0.016785	-0.18768	0.010529	-0.007782	0.84381	-0.020905	0.007324	0.04837	-0.42007	-0.014496	-0.049286	-0.0177	0.13886	0.22812	-0.21332	0.033569	0.075378	-0.049591	0.23331	-0.073395	-0.003052	-0.001221	-0.00412	-0.028992	-0.028381	0.000916	-0.009766
47.281	-0.00824	0.22339	0.016632	-0.001221	-0.013123	-0.02655	-0.18692	0.005951	0.014343	0.76126	-0.018921	-0.001678	0.037384	-0.26154	-0.006409	-0.04425	-0.014343	-0.045471	0.13306	-0.18051	0.12283	0.00412	0.11932	0.25101	-0.10941	-0.001526	-0.003967	-0.003204	-0.048065	-0.026398	0.001526	-0.005493
47.282	-0.005188	0.22812	0.032501	-0.011902	0.011902	-0.051575	-0.19516	0.010529	0.019836	-0.28717	-0.00885	-0.001678	0.050964	-0.33402	-0.021515	-0.046082	-0.022888	-0.005646	0.029144	0.00351	0.13886	0.005646	0.14053	0.23453	-0.11231	-0.009766	-0.010071	-0.011444	-0.053406	-0.021667	-0.002136	-0.007019
47.283	-0.000305	0.24292	0.011749	-0.004272	0.004578	-0.092926	-0.19699	0.005188	0.015869	-0.72022	0.009613	-0.005341	0.036621	-0.14832	0.014191	0.005035	-0.030365	0.076141	0.039368	0.17105	0.086365	0.039978	-0.079956	0.043488	-0.17578	-0.005035	-0.002136	-0.007629	-0.0354	-0.042419	0.001984	-0.014954
47.284	-0.032196	0.21881	-0.006409	0.01236	-0.010986	-0.12711	-0.16998	0.007629	-0.009766	0.042114	-0.008545	-0.010376	0.000916	-0.16846	0.022125	-0.012817	-0.019684	0.14069	0.023193	0.14374	0.16937	-0.036316	-0.061951	-0.042877	-0.14893	-0.007935	-0.007324	-0.010376	-0.042725	-0.039063	0	-0.00061
47.285	-0.009766	0.2504	-0.006256	0.014648	-0.035706	-0.15045	-0.15823	0.012665	0.006256	0.47745	-0.003357	-0.013885	-0.048828	-0.057373	-0.031891	-0.077209	-0.020447	0.20813	0.018158	0.22537	0.26566	-0.093079	-0.046082	-0.12405	-0.050812	-0.004578	-0.006866	-0.007477	-0.01709	-0.064697	-0.000305	-0.011444
47.286	0.060577	0.23438	0.02121	0.006104	-0.043488	-0.13168	-0.16495	0.007935	-0.000916	0.32761	0.00061	0.011597	-0.062256	-0.037842	-0.047913	-0.046997	-0.040588	0.17395	0.095978	0.27542	0.2919	-0.075836	-0.063171	-0.25986	0.040894	-0.010223	-0.016785	-0.00885	0.009766	-0.075684	0.000305	-0.000916
47.287	0.036163	0.25909	0.042725	0.004883	-0.071259	-0.091248	-0.16724	0.009308	0.00351	0.15533	0.018158	0.021057	-0.057831	0.30792	-0.034485	-0.040436	-0.036316	0.1619	0.13321	0.1059	0.16312	-0.032806	-0.097046	-0.3241	0.070343	-0.007629	-0.004578	-0.00473	-0.013123	-0.000458	0.00061	-0.017853
47.288	0.000153	0.25375	0.075989	-0.004883	-0.050659	-0.088196	-0.14877	0.010681	-0.000916	0.19409	0.025482	0.023651	-0.031891	0.5658	-0.021057	-0.00824	-0.07431	0.044098	0.20584	-0.010376	-0.30197	0.10513	-0.29755	-0.20813	0.15427	-0.006561	0.01358	-0.00412	-0.046539	0.007019	-0.000458	-0.012207
47.289	0.00885	0.27817	0.11047	0.015411	-0.005341	-0.12268	-0.15854	0.011444	-0.008087	-0.06424	0.005798	0.008698	0.031891	0.289	-0.004883	-0.03067	-0.049286	0.02243	0.20767	-0.011292	-0.06424	0.06134	-0.26016	-0.12329	0.18631	-0.006409	0.025024	-0.009766	-0.044708	0.004272	0.00061	-0.023041
47.29	0.002136	0.25909	0.10498	0.005646	0.031891	-0.10803	-0.1358	0.010376	-0.019379	-0.8905	-0.003815	0.007782	0.043488	-0.00351	0	-0.063934	-0.021667	-0.010529	0.11704	0.082397	0.23895	-0.023804	-0.13123	-0.12085	0.18188	-0.00351	0.014648	-0.006256	-0.023193	0.032959	0.003357	-0.015717
